<svg width="300" height="125" viewBox="0 0 300 125" fill="none" xmlns="http://www.w3.org/2000/svg">
<rect y="10" width="300" height="115" rx="44" fill="#48484A"/>
<g filter="url(#filter0_i_50_2090)">
<rect width="300" height="115" rx="44" fill="#5F6062"/>
</g>
<path d="M125 115H175C175 117.761 172.761 120 170 120H130C127.239 120 125 117.761 125 115Z" fill="#707070"/>
<path d="M112.494 48.1H125.049L124.617 50.665L112.035 64.732H122.322L121.944 67H108.957L109.416 64.408L121.971 50.341H112.089L112.494 48.1ZM126.216 67L128.631 52.4545H137.409L137.154 54.017H130.136L129.313 58.9318H135.875L135.619 60.4943H129.057L128.233 65.4375H135.364L135.108 67H126.216ZM152.118 52.4545L149.703 67H147.999L141.976 55.5795H141.834L139.931 67H138.169L140.584 52.4545H142.288L148.34 63.9034H148.482L150.385 52.4545H152.118ZM153.228 67L155.643 52.4545H160.557C161.694 52.4545 162.591 52.6581 163.249 53.0653C163.912 53.4725 164.359 54.0241 164.591 54.7202C164.828 55.4162 164.875 56.1951 164.733 57.0568C164.591 57.9091 164.286 58.6856 163.817 59.3864C163.353 60.0871 162.723 60.6458 161.928 61.0625C161.137 61.4792 160.179 61.6875 159.052 61.6875H155.529L155.785 60.125H159.25C160.027 60.125 160.676 59.9901 161.197 59.7202C161.717 59.4503 162.125 59.0833 162.418 58.6193C162.712 58.1553 162.906 57.6345 163 57.0568C163.095 56.4697 163.072 55.9489 162.929 55.4943C162.792 55.035 162.506 54.6752 162.07 54.4148C161.639 54.1496 161.031 54.017 160.245 54.017H157.148L154.989 67H153.228ZM165.016 67H163.169L170.925 52.4545H172.743L175.669 67H173.823L171.521 54.7557H171.408L165.016 67ZM166.635 61.3182H174.078L173.823 62.8807H166.379L166.635 61.3182ZM189.895 52.4545H191.656L190.065 62.0852C189.9 63.0795 189.519 63.9673 188.922 64.7486C188.325 65.5251 187.565 66.1383 186.642 66.5881C185.719 67.0331 184.687 67.2557 183.546 67.2557C182.404 67.2557 181.448 67.0331 180.676 66.5881C179.904 66.1383 179.351 65.5251 179.014 64.7486C178.678 63.9673 178.593 63.0795 178.759 62.0852L180.35 52.4545H182.111L180.534 61.9432C180.421 62.6534 180.475 63.2855 180.698 63.8395C180.92 64.3887 181.294 64.822 181.82 65.1392C182.35 65.4517 183.02 65.608 183.83 65.608C184.639 65.608 185.361 65.4517 185.996 65.1392C186.63 64.822 187.146 64.3887 187.544 63.8395C187.947 63.2855 188.205 62.6534 188.318 61.9432L189.895 52.4545Z" fill="#48484A"/>
<defs>
<filter id="filter0_i_50_2090" x="0" y="0" width="300" height="127" filterUnits="userSpaceOnUse" color-interpolation-filters="sRGB">
<feFlood flood-opacity="0" result="BackgroundImageFix"/>
<feBlend mode="normal" in="SourceGraphic" in2="BackgroundImageFix" result="shape"/>
<feColorMatrix in="SourceAlpha" type="matrix" values="0 0 0 0 0 0 0 0 0 0 0 0 0 0 0 0 0 0 127 0" result="hardAlpha"/>
<feMorphology radius="4" operator="erode" in="SourceAlpha" result="effect1_innerShadow_50_2090"/>
<feOffset dy="12"/>
<feGaussianBlur stdDeviation="10"/>
<feComposite in2="hardAlpha" operator="arithmetic" k2="-1" k3="1"/>
<feColorMatrix type="matrix" values="0 0 0 0 0 0 0 0 0 0 0 0 0 0 0 0 0 0 0.25 0"/>
<feBlend mode="normal" in2="shape" result="effect1_innerShadow_50_2090"/>
</filter>
</defs>
</svg>
