<svg width="486" height="172" viewBox="0 0 486 172" fill="none" xmlns="http://www.w3.org/2000/svg">
<path fill-rule="evenodd" clip-rule="evenodd" d="M150 45.5855C150 43.7992 149.047 42.1485 147.5 41.2554L77.5 0.840833C75.953 -0.0523309 74.047 -0.0523321 72.5 0.840832L2.5 41.2554C0.952995 42.1485 0 43.7991 0 45.5855V126.415C0 128.201 0.952992 129.851 2.5 130.745L72.5 171.159C74.047 172.052 75.953 172.052 77.5 171.159L147.5 130.745C149.047 129.851 150 128.201 150 126.415V45.5855ZM77.5002 31.1517C75.9532 30.2585 74.0472 30.2585 72.5002 31.1517L28.7502 56.4108C27.2032 57.3039 26.2502 58.9546 26.2502 60.7409V111.259C26.2502 113.045 27.2032 114.696 28.7502 115.589L72.5002 140.848C74.0472 141.741 75.9532 141.741 77.5002 140.848L121.25 115.589C122.797 114.696 123.75 113.045 123.75 111.259V60.7409C123.75 58.9546 122.797 57.3039 121.25 56.4108L77.5002 31.1517Z" fill="#047F4B"/>
<ellipse rx="4.69097" ry="2.70633" transform="matrix(-0.557166 0.830401 0.830401 0.557166 93.328 114.799)" fill="#047F4B"/>
<ellipse rx="4.69097" ry="2.70633" transform="matrix(-0.557166 0.830401 0.830401 0.557166 102.303 99.0233)" fill="#047F4B"/>
<ellipse rx="4.69097" ry="2.70633" transform="matrix(-0.557166 0.830401 0.830401 0.557166 112.025 83.06)" fill="#047F4B"/>
<ellipse rx="4.69097" ry="2.70633" transform="matrix(-0.557201 -0.830378 -0.830378 0.557201 59.8332 116.252)" fill="#047F4B"/>
<ellipse rx="4.69097" ry="2.70633" transform="matrix(-0.557201 -0.830378 -0.830378 0.557201 60.1999 95.0635)" fill="#047F4B"/>
<ellipse rx="4.69097" ry="2.70633" transform="matrix(-0.557201 -0.830378 -0.830378 0.557201 50.9683 100.467)" fill="#047F4B"/>
<ellipse rx="4.69097" ry="2.70633" transform="matrix(-0.557201 -0.830378 -0.830378 0.557201 41.7366 105.87)" fill="#047F4B"/>
<ellipse rx="4.69097" ry="2.70633" transform="matrix(-0.557201 -0.830378 -0.830378 0.557201 41.7366 84.7767)" fill="#047F4B"/>
<ellipse cx="57.2542" cy="54.7497" rx="4.69097" ry="2.70633" fill="#047F4B"/>
<ellipse cx="70.3094" cy="62.4189" rx="4.69097" ry="2.70633" fill="#047F4B"/>
<ellipse cx="70.3094" cy="47.2963" rx="4.69097" ry="2.70633" fill="#047F4B"/>
<ellipse rx="4.69097" ry="2.70633" transform="matrix(-1 0 0 1 96.4194 61.9049)" fill="#047F4B"/>
<ellipse rx="4.69097" ry="2.70633" transform="matrix(-1 0 0 1 83.3642 69.5741)" fill="#047F4B"/>
<ellipse rx="4.69097" ry="2.70633" transform="matrix(-1 0 0 1 83.3642 54.4516)" fill="#047F4B"/>
<path d="M174.264 109.5V62.9545H192.628C196.158 62.9545 199.166 63.6288 201.651 64.9773C204.135 66.3106 206.029 68.1667 207.332 70.5455C208.651 72.9091 209.31 75.6364 209.31 78.7273C209.31 81.8182 208.643 84.5455 207.31 86.9091C205.976 89.2727 204.045 91.1136 201.514 92.4318C198.999 93.75 195.954 94.4091 192.378 94.4091H180.673V86.5227H190.787C192.681 86.5227 194.241 86.197 195.469 85.5455C196.711 84.8788 197.635 83.9621 198.241 82.7955C198.863 81.6136 199.173 80.2576 199.173 78.7273C199.173 77.1818 198.863 75.8333 198.241 74.6818C197.635 73.5151 196.711 72.6136 195.469 71.9773C194.226 71.3258 192.651 71 190.741 71H184.105V109.5H174.264ZM258.474 86.2273C258.474 91.303 257.512 95.6212 255.588 99.1818C253.679 102.742 251.073 105.462 247.77 107.341C244.482 109.205 240.785 110.136 236.679 110.136C232.543 110.136 228.83 109.197 225.543 107.318C222.255 105.439 219.656 102.72 217.747 99.1591C215.838 95.5985 214.884 91.2879 214.884 86.2273C214.884 81.1515 215.838 76.8333 217.747 73.2727C219.656 69.7121 222.255 67 225.543 65.1364C228.83 63.2576 232.543 62.3182 236.679 62.3182C240.785 62.3182 244.482 63.2576 247.77 65.1364C251.073 67 253.679 69.7121 255.588 73.2727C257.512 76.8333 258.474 81.1515 258.474 86.2273ZM248.497 86.2273C248.497 82.9394 248.005 80.1667 247.02 77.9091C246.05 75.6515 244.679 73.9394 242.906 72.7727C241.134 71.6061 239.058 71.0227 236.679 71.0227C234.3 71.0227 232.224 71.6061 230.452 72.7727C228.679 73.9394 227.3 75.6515 226.315 77.9091C225.346 80.1667 224.861 82.9394 224.861 86.2273C224.861 89.5152 225.346 92.2879 226.315 94.5455C227.3 96.803 228.679 98.5152 230.452 99.6818C232.224 100.848 234.3 101.432 236.679 101.432C239.058 101.432 241.134 100.848 242.906 99.6818C244.679 98.5152 246.05 96.803 247.02 94.5455C248.005 92.2879 248.497 89.5152 248.497 86.2273ZM291.014 76.3409C290.832 74.5076 290.052 73.0833 288.673 72.0682C287.295 71.053 285.423 70.5455 283.06 70.5455C281.454 70.5455 280.098 70.7727 278.991 71.2273C277.885 71.6667 277.037 72.2803 276.446 73.0682C275.87 73.8561 275.582 74.75 275.582 75.75C275.552 76.5833 275.726 77.3106 276.105 77.9318C276.499 78.553 277.037 79.0909 277.719 79.5455C278.401 79.9848 279.188 80.3712 280.082 80.7045C280.976 81.0227 281.931 81.2955 282.946 81.5227L287.128 82.5227C289.158 82.9773 291.022 83.5833 292.719 84.3409C294.416 85.0985 295.885 86.0303 297.128 87.1364C298.37 88.2424 299.332 89.5455 300.014 91.0455C300.711 92.5455 301.067 94.2652 301.082 96.2045C301.067 99.053 300.34 101.523 298.901 103.614C297.476 105.689 295.416 107.303 292.719 108.455C290.037 109.591 286.802 110.159 283.014 110.159C279.257 110.159 275.984 109.583 273.196 108.432C270.423 107.28 268.257 105.576 266.696 103.318C265.151 101.045 264.34 98.2348 264.264 94.8864H273.787C273.893 96.447 274.34 97.75 275.128 98.7955C275.931 99.8258 276.999 100.606 278.332 101.136C279.681 101.652 281.204 101.909 282.901 101.909C284.567 101.909 286.014 101.667 287.241 101.182C288.484 100.697 289.446 100.023 290.128 99.1591C290.81 98.2955 291.151 97.303 291.151 96.1818C291.151 95.1364 290.84 94.2576 290.219 93.5455C289.613 92.8333 288.719 92.2273 287.537 91.7273C286.37 91.2273 284.938 90.7727 283.241 90.3636L278.173 89.0909C274.249 88.1364 271.151 86.6439 268.878 84.6136C266.605 82.5833 265.476 79.8485 265.491 76.4091C265.476 73.5909 266.226 71.1288 267.741 69.0227C269.272 66.9167 271.37 65.2727 274.037 64.0909C276.704 62.9091 279.734 62.3182 283.128 62.3182C286.582 62.3182 289.598 62.9091 292.173 64.0909C294.764 65.2727 296.779 66.9167 298.219 69.0227C299.658 71.1288 300.401 73.5682 300.446 76.3409H291.014ZM348.77 79.25H338.815C338.634 77.9621 338.262 76.8182 337.702 75.8182C337.141 74.803 336.421 73.9394 335.543 73.2273C334.664 72.5151 333.649 71.9697 332.497 71.5909C331.361 71.2121 330.126 71.0227 328.793 71.0227C326.384 71.0227 324.285 71.6212 322.497 72.8182C320.709 74 319.323 75.7273 318.338 78C317.353 80.2576 316.861 83 316.861 86.2273C316.861 89.5455 317.353 92.3333 318.338 94.5909C319.338 96.8485 320.732 98.553 322.52 99.7045C324.308 100.856 326.376 101.432 328.724 101.432C330.043 101.432 331.262 101.258 332.384 100.909C333.52 100.561 334.527 100.053 335.406 99.3864C336.285 98.7045 337.012 97.8788 337.588 96.9091C338.179 95.9394 338.588 94.8333 338.815 93.5909L348.77 93.6364C348.512 95.7727 347.868 97.8333 346.838 99.8182C345.823 101.788 344.452 103.553 342.724 105.114C341.012 106.659 338.967 107.886 336.588 108.795C334.224 109.689 331.55 110.136 328.565 110.136C324.414 110.136 320.702 109.197 317.429 107.318C314.171 105.439 311.596 102.72 309.702 99.1591C307.823 95.5985 306.884 91.2879 306.884 86.2273C306.884 81.1515 307.838 76.8333 309.747 73.2727C311.656 69.7121 314.247 67 317.52 65.1364C320.793 63.2576 324.474 62.3182 328.565 62.3182C331.262 62.3182 333.762 62.697 336.065 63.4545C338.384 64.2121 340.437 65.3182 342.224 66.7727C344.012 68.2121 345.467 69.9773 346.588 72.0682C347.724 74.1591 348.452 76.553 348.77 79.25ZM355.827 109.5V62.9545H365.668V82.1591H385.645V62.9545H395.463V109.5H385.645V90.2727H365.668V109.5H355.827ZM403.577 109.5V62.9545H434.94V71.0682H413.418V82.1591H433.327V90.2727H413.418V101.386H435.031V109.5H403.577ZM481.696 62.9545V109.5H473.196L452.946 80.2045H452.605V109.5H442.764V62.9545H451.401L471.491 92.2273H471.901V62.9545H481.696Z" fill="#047F4B"/>
</svg>
