<svg width="150" height="172" viewBox="0 0 150 172" fill="none" xmlns="http://www.w3.org/2000/svg">
<path fill-rule="evenodd" clip-rule="evenodd" d="M150 45.5855C150 43.7991 149.047 42.1485 147.5 41.2554L77.5 0.840833C75.953 -0.0523309 74.047 -0.0523322 72.5 0.840832L2.5 41.2554C0.952995 42.1485 0 43.7991 0 45.5855V126.415C0 128.201 0.952992 129.851 2.5 130.745L72.5 171.159C74.047 172.052 75.953 172.052 77.5 171.159L147.5 130.745C149.047 129.851 150 128.201 150 126.415V45.5855ZM77.5002 31.1517C75.9532 30.2585 74.0472 30.2585 72.5002 31.1517L28.7502 56.4108C27.2032 57.3039 26.2502 58.9546 26.2502 60.7409V111.259C26.2502 113.045 27.2032 114.696 28.7502 115.589L72.5002 140.848C74.0472 141.741 75.9532 141.741 77.5002 140.848L121.25 115.589C122.797 114.696 123.75 113.045 123.75 111.259V60.7409C123.75 58.9546 122.797 57.3039 121.25 56.4108L77.5002 31.1517Z" fill="#047F4B"/>
<ellipse rx="4.69097" ry="2.70633" transform="matrix(-0.557166 0.830401 0.830401 0.557166 93.328 114.799)" fill="#047F4B"/>
<ellipse rx="4.69097" ry="2.70633" transform="matrix(-0.557166 0.830401 0.830401 0.557166 102.303 99.0233)" fill="#047F4B"/>
<ellipse rx="4.69097" ry="2.70633" transform="matrix(-0.557166 0.830401 0.830401 0.557166 112.025 83.06)" fill="#047F4B"/>
<ellipse rx="4.69097" ry="2.70633" transform="matrix(-0.557201 -0.830378 -0.830378 0.557201 59.8332 116.252)" fill="#047F4B"/>
<ellipse rx="4.69097" ry="2.70633" transform="matrix(-0.557201 -0.830378 -0.830378 0.557201 60.1999 95.0635)" fill="#047F4B"/>
<ellipse rx="4.69097" ry="2.70633" transform="matrix(-0.557201 -0.830378 -0.830378 0.557201 50.9683 100.467)" fill="#047F4B"/>
<ellipse rx="4.69097" ry="2.70633" transform="matrix(-0.557201 -0.830378 -0.830378 0.557201 41.7366 105.87)" fill="#047F4B"/>
<ellipse rx="4.69097" ry="2.70633" transform="matrix(-0.557201 -0.830378 -0.830378 0.557201 41.7366 84.7767)" fill="#047F4B"/>
<ellipse cx="57.2542" cy="54.7497" rx="4.69097" ry="2.70633" fill="#047F4B"/>
<ellipse cx="70.3094" cy="62.4189" rx="4.69097" ry="2.70633" fill="#047F4B"/>
<ellipse cx="70.3094" cy="47.2963" rx="4.69097" ry="2.70633" fill="#047F4B"/>
<ellipse rx="4.69097" ry="2.70633" transform="matrix(-1 0 0 1 96.4194 61.9049)" fill="#047F4B"/>
<ellipse rx="4.69097" ry="2.70633" transform="matrix(-1 0 0 1 83.3642 69.5741)" fill="#047F4B"/>
<ellipse rx="4.69097" ry="2.70633" transform="matrix(-1 0 0 1 83.3642 54.4516)" fill="#047F4B"/>
</svg>
